<?xml version="1.0" encoding="iso-8859-1"?>
<!-- Generator: Adobe Illustrator 19.0.0, SVG Export Plug-In . SVG Version: 6.00 Build 0)  -->
<svg xmlns="http://www.w3.org/2000/svg" xmlns:xlink="http://www.w3.org/1999/xlink" version="1.1" id="Layer_1" x="0px" y="0px" viewBox="0 0 512 512" style="enable-background:new 0 0 512 512;" xml:space="preserve">
<polygon style="fill:#5B5D6E;" points="310.98,384.286 201.02,384.286 191.857,466.756 320.143,466.756 "/>
<polygon style="fill:#464655;" points="315.053,420.94 310.98,384.286 201.02,384.286 196.947,420.94 "/>
<path style="fill:#707487;" d="M485.083,393.45H26.917c-10.122,0-18.327-8.205-18.327-18.327V63.57  c0-10.122,8.205-18.327,18.327-18.327h458.166c10.122,0,18.327,8.205,18.327,18.327v311.553  C503.409,385.245,495.205,393.45,485.083,393.45z"/>
<path style="fill:#FFFFFF;" d="M485.083,45.244H26.917c-10.122,0-18.327,8.205-18.327,18.327V338.47h494.819V63.57  C503.409,53.448,495.205,45.244,485.083,45.244z"/>
<g>
	<path style="fill:#AFB9D2;" d="M91.06,301.817H54.407c-5.06,0-9.163-4.103-9.163-9.163V91.06c0-5.06,4.103-9.163,9.163-9.163H91.06   c5.06,0,9.163,4.103,9.163,9.163v201.593C100.224,297.714,96.121,301.817,91.06,301.817z"/>
	<path style="fill:#AFB9D2;" d="M457.593,301.817h-54.98c-5.06,0-9.163-4.103-9.163-9.163V91.06c0-5.06,4.103-9.163,9.163-9.163   h54.98c5.06,0,9.163,4.103,9.163,9.163v201.593C466.756,297.714,462.653,301.817,457.593,301.817z"/>
</g>
<g>
	<path style="fill:#C7CFE2;" d="M100.224,191.857h-54.98V91.06c0-5.06,4.103-9.163,9.163-9.163H91.06   c5.06,0,9.163,4.103,9.163,9.163V191.857z"/>
	<path style="fill:#C7CFE2;" d="M466.756,191.857H393.45V91.06c0-5.06,4.103-9.163,9.163-9.163h54.98   c5.06,0,9.163,4.103,9.163,9.163V191.857z"/>
</g>
<polygon style="fill:#464655;" points="191.857,127.714 198.097,205.756 247.874,182.409 "/>
<path d="M485.083,36.653H26.917C12.075,36.653,0,48.728,0,63.57v311.553c0,14.842,12.075,26.917,26.917,26.917h164.371  l-7.016,56.125H173.53c-4.744,0-8.591,3.846-8.591,8.591c0,4.744,3.846,8.591,8.591,8.591h164.94c4.744,0,8.591-3.846,8.591-8.591  c0-4.744-3.846-8.591-8.591-8.591h-10.743l-7.016-56.125h164.371c14.842,0,26.917-12.075,26.917-26.917V63.57  C512,48.728,499.925,36.653,485.083,36.653z M310.412,458.166H201.587l7.016-56.125h94.793L310.412,458.166z M485.083,384.859  H26.917c-5.369,0-9.736-4.367-9.736-9.736V347.06h412.921c4.744,0,8.591-3.846,8.591-8.591c0-4.744-3.846-8.591-8.591-8.591H17.181  V63.57c0-5.369,4.367-9.736,9.736-9.736h458.166c5.369,0,9.736,4.367,9.736,9.736v266.309H466.76c-4.744,0-8.591,3.846-8.591,8.591  c0,4.744,3.846,8.591,8.591,8.591h28.059v28.063C494.819,380.492,490.451,384.859,485.083,384.859z"/>
<path d="M197.859,121.567c-2.561-2.502-6.406-3.151-9.649-1.631c-3.243,1.521-5.201,4.892-4.916,8.462l6.24,78.043  c0.225,2.809,1.812,5.328,4.248,6.744c1.33,0.772,2.82,1.163,4.316,1.163c1.243,0,2.489-0.269,3.647-0.813l17.111-8.026  l11.917,25.406c1.462,3.117,4.555,4.945,7.783,4.945c1.222,0,2.463-0.262,3.642-0.816c4.295-2.015,6.145-7.13,4.129-11.426  l-11.917-25.408l17.111-8.026c2.551-1.196,4.354-3.568,4.822-6.346c0.47-2.778-0.454-5.61-2.468-7.578L197.859,121.567z   M202.246,149.864l30.758,30.032l-27.331,12.818L202.246,149.864z"/>
<path d="M91.06,73.306H54.407c-9.79,0-17.754,7.964-17.754,17.754v201.593c0,9.79,7.964,17.754,17.754,17.754H91.06  c9.79,0,17.754-7.964,17.754-17.754V91.06C108.814,81.271,100.85,73.306,91.06,73.306z M53.834,127.141h37.799v19.472H53.834  V127.141z M53.834,163.794h37.799v19.472H53.834V163.794z M54.407,90.488H91.06c0.316,0,0.573,0.257,0.573,0.573v18.899H53.834  V91.06C53.834,90.744,54.091,90.488,54.407,90.488z M91.06,293.226H54.407c-0.316,0-0.573-0.257-0.573-0.573v-92.206h37.799v92.206  C91.633,292.969,91.377,293.226,91.06,293.226z"/>
<path d="M475.347,292.653V91.06c0-9.79-7.964-17.754-17.754-17.754h-54.98c-9.79,0-17.754,7.964-17.754,17.754v201.593  c0,9.79,7.964,17.754,17.754,17.754h54.98C467.383,310.407,475.347,302.443,475.347,292.653z M402.04,145.468h56.125v37.799H402.04  V145.468z M402.613,90.488h54.98c0.316,0,0.573,0.257,0.573,0.573v37.226H402.04V91.06C402.04,90.744,402.297,90.488,402.613,90.488  z M457.593,293.226h-54.98c-0.316,0-0.573-0.257-0.573-0.573v-92.206h56.125v92.206  C458.166,292.969,457.909,293.226,457.593,293.226z"/>
<path d="M430.195,219.919h-0.092c-4.744,0-8.545,3.846-8.545,8.591c0,4.744,3.892,8.591,8.636,8.591  c4.744,0,8.591-3.846,8.591-8.591C438.785,223.766,434.939,219.919,430.195,219.919z"/>
<path d="M430.195,256.573h-0.092c-4.744,0-8.545,3.846-8.545,8.591c0,4.744,3.892,8.591,8.636,8.591  c4.744,0,8.591-3.846,8.591-8.591C438.785,260.419,434.939,256.573,430.195,256.573z"/>
<path d="M155.204,237.101c4.744,0,8.591-3.846,8.591-8.591v-18.327c0-4.744-3.846-8.591-8.591-8.591  c-4.744,0-8.591,3.846-8.591,8.591v18.327C146.613,233.254,150.459,237.101,155.204,237.101z"/>
<path d="M155.204,182.121c4.744,0,8.591-3.846,8.591-8.591v-18.327c0-4.744-3.846-8.591-8.591-8.591  c-4.744,0-8.591,3.846-8.591,8.591v18.327C146.613,178.275,150.459,182.121,155.204,182.121z"/>
<path d="M155.204,127.141c4.744,0,8.591-3.846,8.591-8.591V99.651h18.899c4.744,0,8.591-3.846,8.591-8.591s-3.846-8.591-8.591-8.591  h-27.49c-4.744,0-8.591,3.846-8.591,8.591v27.49C146.613,123.295,150.459,127.141,155.204,127.141z"/>
<path d="M182.694,284.063h-18.899v-18.899c0-4.744-3.846-8.591-8.591-8.591c-4.744,0-8.591,3.846-8.591,8.591v27.49  c0,4.744,3.846,8.591,8.591,8.591h27.49c4.744,0,8.591-3.846,8.591-8.591C191.284,287.909,187.438,284.063,182.694,284.063z"/>
<path d="M356.796,146.613c-4.744,0-8.591,3.846-8.591,8.591v18.327c0,4.744,3.846,8.591,8.591,8.591s8.591-3.846,8.591-8.591  v-18.327C365.387,150.459,361.541,146.613,356.796,146.613z"/>
<path d="M356.796,201.593c-4.744,0-8.591,3.846-8.591,8.591v18.327c0,4.744,3.846,8.591,8.591,8.591s8.591-3.846,8.591-8.591  v-18.327C365.387,205.439,361.541,201.593,356.796,201.593z"/>
<path d="M292.653,82.47h-18.327c-4.744,0-8.591,3.846-8.591,8.591s3.846,8.591,8.591,8.591h18.327c4.744,0,8.591-3.846,8.591-8.591  S297.398,82.47,292.653,82.47z"/>
<path d="M219.347,99.651h18.327c4.744,0,8.591-3.846,8.591-8.591s-3.846-8.591-8.591-8.591h-18.327  c-4.744,0-8.591,3.846-8.591,8.591S214.602,99.651,219.347,99.651z"/>
<path d="M292.653,284.063h-18.327c-4.744,0-8.591,3.846-8.591,8.591c0,4.744,3.846,8.591,8.591,8.591h18.327  c4.744,0,8.591-3.846,8.591-8.591C301.244,287.909,297.398,284.063,292.653,284.063z"/>
<path d="M237.673,284.063h-18.327c-4.744,0-8.591,3.846-8.591,8.591c0,4.744,3.846,8.591,8.591,8.591h18.327  c4.744,0,8.591-3.846,8.591-8.591C246.264,287.909,242.418,284.063,237.673,284.063z"/>
<path d="M356.796,256.573c-4.744,0-8.591,3.846-8.591,8.591v18.899h-18.899c-4.744,0-8.591,3.846-8.591,8.591  c0,4.744,3.846,8.591,8.591,8.591h27.49c4.744,0,8.591-3.846,8.591-8.591v-27.49C365.387,260.419,361.541,256.573,356.796,256.573z"/>
<path d="M356.796,82.47h-27.49c-4.744,0-8.591,3.846-8.591,8.591s3.846,8.591,8.591,8.591h18.899v18.899  c0,4.744,3.846,8.591,8.591,8.591s8.591-3.846,8.591-8.591V91.06C365.387,86.316,361.541,82.47,356.796,82.47z"/>
<g>
</g>
<g>
</g>
<g>
</g>
<g>
</g>
<g>
</g>
<g>
</g>
<g>
</g>
<g>
</g>
<g>
</g>
<g>
</g>
<g>
</g>
<g>
</g>
<g>
</g>
<g>
</g>
<g>
</g>
</svg>
